<mxfile host="app.diagrams.net" agent="Mozilla/5.0 (Windows NT 10.0; Win64; x64) AppleWebKit/537.36 (KHTML, like Gecko) Chrome/139.0.0.0 Safari/537.36" version="28.1.1">
  <diagram name="Sequence Diagram Login" id="YL1SBybCnhDLR-zsMojP">
    <mxGraphModel dx="1042" dy="562" grid="1" gridSize="10" guides="1" tooltips="1" connect="1" arrows="1" fold="1" page="1" pageScale="1" pageWidth="850" pageHeight="1100" math="0" shadow="0">
      <root>
        <mxCell id="0" />
        <mxCell id="1" parent="0" />
        <mxCell id="lAR_CJHDyZgE4LneVTQO-1" value="User (Warga)" style="shape=umlLifeline;perimeter=lifelinePerimeter;" parent="1" vertex="1">
          <mxGeometry x="40" y="40" width="100" height="600" as="geometry" />
        </mxCell>
        <mxCell id="lAR_CJHDyZgE4LneVTQO-2" value="RT" style="shape=umlLifeline;perimeter=lifelinePerimeter;" parent="1" vertex="1">
          <mxGeometry x="220" y="40" width="100" height="600" as="geometry" />
        </mxCell>
        <mxCell id="lAR_CJHDyZgE4LneVTQO-3" value="Admin" style="shape=umlLifeline;perimeter=lifelinePerimeter;" parent="1" vertex="1">
          <mxGeometry x="400" y="40" width="100" height="600" as="geometry" />
        </mxCell>
        <mxCell id="lAR_CJHDyZgE4LneVTQO-4" value="Database" style="shape=umlLifeline;perimeter=lifelinePerimeter;" parent="1" vertex="1">
          <mxGeometry x="580" y="40" width="100" height="600" as="geometry" />
        </mxCell>
        <mxCell id="lAR_CJHDyZgE4LneVTQO-5" value="Kirim laporan masalah" style="endArrow=block;html=1;entryX=0.548;entryY=0.384;entryDx=0;entryDy=0;entryPerimeter=0;" parent="1" edge="1">
          <mxGeometry x="0.0265" y="10" relative="1" as="geometry">
            <mxPoint x="80" y="260" as="sourcePoint" />
            <mxPoint x="274.79999999999995" y="260.4" as="targetPoint" />
            <mxPoint as="offset" />
          </mxGeometry>
        </mxCell>
        <mxCell id="lAR_CJHDyZgE4LneVTQO-6" value="Validasi laporan" style="endArrow=block;html=1;" parent="1" source="lAR_CJHDyZgE4LneVTQO-2" target="lAR_CJHDyZgE4LneVTQO-4" edge="1">
          <mxGeometry x="0.5028" y="-60" relative="1" as="geometry">
            <mxPoint as="offset" />
          </mxGeometry>
        </mxCell>
        <mxCell id="lAR_CJHDyZgE4LneVTQO-7" value="Teruskan laporan" style="endArrow=block;html=1;" parent="1" source="lAR_CJHDyZgE4LneVTQO-2" target="lAR_CJHDyZgE4LneVTQO-3" edge="1">
          <mxGeometry relative="1" as="geometry" />
        </mxCell>
        <mxCell id="lAR_CJHDyZgE4LneVTQO-8" value="Ambil data laporan" style="endArrow=block;html=1;" parent="1" edge="1">
          <mxGeometry x="-1" y="-90" relative="1" as="geometry">
            <mxPoint x="360" y="350" as="sourcePoint" />
            <mxPoint x="360" y="420" as="targetPoint" />
            <Array as="points">
              <mxPoint x="360" y="390" />
            </Array>
            <mxPoint x="90" y="-90" as="offset" />
          </mxGeometry>
        </mxCell>
        <mxCell id="lAR_CJHDyZgE4LneVTQO-14" value="" style="endArrow=classic;html=1;rounded=0;" parent="1" edge="1">
          <mxGeometry width="50" height="50" relative="1" as="geometry">
            <mxPoint x="425" y="470" as="sourcePoint" />
            <mxPoint x="510" y="420" as="targetPoint" />
          </mxGeometry>
        </mxCell>
        <mxCell id="lAR_CJHDyZgE4LneVTQO-15" value="" style="endArrow=classic;html=1;rounded=0;" parent="1" edge="1">
          <mxGeometry width="50" height="50" relative="1" as="geometry">
            <mxPoint x="530" y="420" as="sourcePoint" />
            <mxPoint x="530" y="480" as="targetPoint" />
            <Array as="points">
              <mxPoint x="530" y="450" />
            </Array>
          </mxGeometry>
        </mxCell>
        <mxCell id="lAR_CJHDyZgE4LneVTQO-16" value="" style="endArrow=classic;html=1;rounded=0;" parent="1" edge="1">
          <mxGeometry width="50" height="50" relative="1" as="geometry">
            <mxPoint x="360" y="280" as="sourcePoint" />
            <mxPoint x="360" y="320" as="targetPoint" />
          </mxGeometry>
        </mxCell>
        <mxCell id="KUrqJGqjnnFbU7OzwjjW-1" value="" style="ellipse;whiteSpace=wrap;html=1;" vertex="1" parent="1">
          <mxGeometry x="70" width="40" height="40" as="geometry" />
        </mxCell>
      </root>
    </mxGraphModel>
  </diagram>
</mxfile>
